HIERARCHY
ROOT Hips
{
	OFFSET -0.001795 -0.223333 0.028219
	CHANNELS 6 Xposition Yposition Zposition Zrotation Yrotation Xrotation 
	JOINT LeftUpLeg
	{
		OFFSET 0.069520 -0.091406 -0.006815
		CHANNELS 3 Zrotation Yrotation Xrotation
		JOINT LeftLeg
		{
			OFFSET 0.034277 -0.375199 -0.004496
			CHANNELS 3 Zrotation Yrotation Xrotation
			JOINT LeftFoot
			{
				OFFSET -0.013596 -0.397961 -0.043693
				CHANNELS 3 Zrotation Yrotation Xrotation
				JOINT LeftToe
				{
					OFFSET 0.026358 -0.055791 0.119288
					CHANNELS 3 Zrotation Yrotation Xrotation
					End Site
					{
						OFFSET 0.000000 0.000000 0.000000
					}
				}
			}
		}
	}
	JOINT RightUpLeg
	{
		OFFSET -0.067670 -0.090522 -0.004320
		CHANNELS 3 Zrotation Yrotation Xrotation
		JOINT RightLeg
		{
			OFFSET -0.038290 -0.382569 -0.008850
			CHANNELS 3 Zrotation Yrotation Xrotation
			JOINT RightFoot
			{
				OFFSET 0.015774 -0.398415 -0.042312
				CHANNELS 3 Zrotation Yrotation Xrotation
				JOINT RightToe
				{
					OFFSET -0.025372 -0.048144 0.123348
					CHANNELS 3 Zrotation Yrotation Xrotation
					End Site
					{
						OFFSET 0.000000 0.000000 0.000000
					}
				}
			}
		}
	}
	JOINT Spine
	{
		OFFSET -0.002533 0.108963 -0.026696
		CHANNELS 3 Zrotation Yrotation Xrotation
		JOINT Spine1
		{
			OFFSET 0.005487 0.135180 0.001092
			CHANNELS 3 Zrotation Yrotation Xrotation
			JOINT Spine2
			{
				OFFSET 0.001457 0.052922 0.025425
				CHANNELS 3 Zrotation Yrotation Xrotation
				JOINT Neck
				{
					OFFSET -0.002778 0.213870 -0.042857
					CHANNELS 3 Zrotation Yrotation Xrotation
					JOINT Head
					{
						OFFSET 0.005152 0.064970 0.051349
						CHANNELS 3 Zrotation Yrotation Xrotation
						End Site
						{
							OFFSET 0.000000 0.000000 0.000000
						}
					}
				}
				JOINT LeftShoulder
				{
					OFFSET 0.078845 0.121749 -0.034090
					CHANNELS 3 Zrotation Yrotation Xrotation
					JOINT LeftArm
					{
						OFFSET 0.090977 0.030469 -0.008868
						CHANNELS 3 Zrotation Yrotation Xrotation
						JOINT LeftForeArm
						{
							OFFSET 0.259612 -0.012772 -0.027456
							CHANNELS 3 Zrotation Yrotation Xrotation
							JOINT LeftHand
							{
								OFFSET 0.249234 0.008986 -0.001171
								CHANNELS 3 Zrotation Yrotation Xrotation
								End Site
								{
									OFFSET 0.000000 0.000000 0.000000
								}
							}
						}
					}
				}
				JOINT RightShoulder
				{
					OFFSET -0.081759 0.118833 -0.038615
					CHANNELS 3 Zrotation Yrotation Xrotation
					JOINT RightArm
					{
						OFFSET -0.096012 0.032551 -0.009143
						CHANNELS 3 Zrotation Yrotation Xrotation
						JOINT RightForeArm
						{
							OFFSET -0.253742 -0.013329 -0.021401
							CHANNELS 3 Zrotation Yrotation Xrotation
							JOINT RightHand
							{
								OFFSET -0.255298 0.007772 -0.005559
								CHANNELS 3 Zrotation Yrotation Xrotation
								End Site
								{
									OFFSET 0.000000 0.000000 0.000000
								}
							}
						}
					}
				}
			}
		}
	}
}
MOTION
Frames: 16
Frame Time: 0.050000
0.000000 0.927217 0.000000 -2.044368 -5.180922 -4.926221 6.440427 0.247733 4.086209 -5.589741 0.794508 5.135108 5.674243 12.206451 1.409386 0.000000 0.000000 0.000000 -1.906592 -0.173510 2.776638 7.138190 -0.822047 8.549128 -7.983876 -19.546041 5.374826 0.000000 0.000000 0.000000 -2.399017 -0.182414 10.524963 4.084214 -0.894138 -18.417025 1.177114 2.312487 24.139123 -1.635826 2.377231 -23.783194 0.000000 0.000000 0.000000 -30.257290 -4.474401 1.308156 -44.796202 -10.571136 -3.585816 -17.301762 -29.817603 6.151577 0.000000 0.000000 0.000000 21.155890 10.856700 4.541537 52.536117 6.421879 -4.413869 11.755841 26.568801 3.652738 0.000000 0.000000 0.000000 
-0.000113 0.927422 0.000419 -2.472757 -6.090684 -4.825818 6.849604 0.274337 4.482895 -5.610695 0.802438 4.631021 6.007794 12.914976 1.535825 0.000000 0.000000 0.000000 -1.368933 -0.263207 3.661334 6.839796 -0.732311 6.802854 -7.505234 -18.567849 5.288697 0.000000 0.000000 0.000000 -2.146610 -0.203596 11.044784 3.544468 -0.794635 -17.810366 2.689141 2.435576 22.902027 -3.074924 3.194595 -24.987148 0.000000 0.000000 0.000000 -31.060137 -4.790504 1.621181 -44.611581 -10.025702 -3.711686 -17.941454 -29.387109 6.225189 0.000000 0.000000 0.000000 19.339469 10.968011 4.373447 53.977793 5.636682 -4.708452 11.613250 26.887917 3.642559 0.000000 0.000000 0.000000 
-0.000120 0.927757 0.000507 -2.354575 -5.876159 -4.716312 6.881254 0.261019 4.331798 -5.864284 0.841197 4.597630 5.890547 12.689258 1.689497 0.000000 0.000000 0.000000 -1.563559 -0.234566 3.413334 6.998293 -0.763133 7.029492 -7.589356 -18.756043 5.443233 0.000000 0.000000 0.000000 -2.077815 -0.219567 11.754460 3.910315 -0.787469 -19.568407 2.705376 2.171568 23.883888 -3.802191 3.612141 -25.838460 0.000000 0.000000 0.000000 -32.007698 -4.568654 1.557729 -43.863403 -10.088237 -3.776817 -17.218111 -28.361622 5.803420 0.000000 0.000000 0.000000 19.736182 11.286620 4.546201 53.236938 5.033610 -5.005428 11.427499 26.643701 3.546905 0.000000 0.000000 0.000000 
-0.000285 0.927916 0.000551 -2.463634 -6.392362 -5.050868 7.291993 0.288076 4.755963 -6.398249 0.945329 4.678340 6.007210 12.953048 1.844358 0.000000 0.000000 0.000000 -1.477517 -0.278074 3.953140 6.956682 -0.742178 6.698549 -7.329962 -18.226063 5.393256 0.000000 0.000000 0.000000 -2.759534 -0.151600 12.671039 4.461624 -0.938498 -19.864579 3.337997 1.819177 23.634083 -4.938927 4.157470 -26.776311 0.000000 0.000000 0.000000 -32.612208 -3.748838 1.243854 -43.185384 -9.878157 -3.870592 -18.496205 -27.777250 6.022620 0.000000 0.000000 0.000000 19.280868 11.890969 4.652629 53.110210 4.670643 -5.088497 12.237174 26.791941 3.711241 0.000000 0.000000 0.000000 
-0.000535 0.927979 0.000779 -2.511479 -6.702628 -5.115161 7.268321 0.294691 4.682650 -6.280503 0.943550 5.067485 6.148522 13.243646 1.878910 0.000000 0.000000 0.000000 -1.540073 -0.272482 3.960233 7.123798 -0.760376 6.815561 -7.188541 -17.938642 5.366830 0.000000 0.000000 0.000000 -2.545833 -0.172057 13.350198 4.521238 -0.957188 -19.927880 3.284922 2.105556 23.205060 -4.748042 4.064763 -27.074510 0.000000 0.000000 0.000000 -32.181529 -3.941644 1.310703 -43.403672 -9.177091 -4.053282 -18.850289 -27.647647 6.067014 0.000000 0.000000 0.000000 19.536038 11.241611 4.318910 52.889695 4.715108 -5.011311 12.478740 27.248749 3.838988 0.000000 0.000000 0.000000 
-0.000755 0.927578 0.001622 -2.681727 -6.599971 -4.917558 7.597999 0.282043 4.687762 -6.505173 0.971084 4.790083 6.106872 13.138681 1.688524 0.000000 0.000000 0.000000 -1.415534 -0.268264 3.799720 7.274314 -0.785852 6.865810 -7.242322 -18.043024 5.323822 0.000000 0.000000 0.000000 -2.461911 -0.183606 13.461495 4.780254 -0.995441 -20.350138 3.333333 1.759424 23.438653 -5.104506 4.218992 -27.436724 0.000000 0.000000 0.000000 -32.096297 -3.794617 1.331996 -43.624876 -8.674534 -4.286393 -19.131401 -27.381593 6.091709 0.000000 0.000000 0.000000 19.455601 11.500240 4.390486 52.659761 4.451859 -5.107527 12.204453 27.616804 3.820019 0.000000 0.000000 0.000000 
-0.001026 0.927817 0.003079 -2.782682 -6.519359 -4.707291 7.648560 0.271011 4.586103 -6.381198 0.945401 4.728738 6.090230 13.104902 1.713245 0.000000 0.000000 0.000000 -1.226668 -0.262705 3.589524 7.166891 -0.773659 7.023944 -7.284228 -18.143905 5.450338 0.000000 0.000000 0.000000 -2.339446 -0.197937 13.439588 4.835763 -1.009034 -20.330569 3.206340 1.519066 23.259480 -4.781813 4.007377 -27.133378 0.000000 0.000000 0.000000 -32.139011 -3.462482 1.169106 -43.357272 -8.066241 -4.484107 -19.473913 -27.354414 6.178590 0.000000 0.000000 0.000000 19.642011 11.197156 4.178014 52.487006 4.220907 -5.167131 12.116840 28.225061 3.885832 0.000000 0.000000 0.000000 
-0.001295 0.927275 0.004964 -2.858196 -6.159055 -4.475418 7.868271 0.246372 4.405899 -6.559965 0.968032 4.737483 5.975313 12.831945 1.421658 0.000000 0.000000 0.000000 -1.184990 -0.267647 3.592507 7.319689 -0.802729 6.846667 -7.439357 -18.448186 5.379530 0.000000 0.000000 0.000000 -2.352097 -0.199812 13.207049 4.944331 -1.036583 -20.225499 2.976304 1.579055 23.086324 -4.438003 3.852985 -27.098565 0.000000 0.000000 0.000000 -32.033976 -3.710922 1.210230 -43.283342 -7.539856 -4.597627 -19.467332 -27.371548 6.162197 0.000000 0.000000 0.000000 19.701936 10.785203 4.035924 52.497643 4.045987 -5.239575 12.502010 28.788730 4.086572 0.000000 0.000000 0.000000 
-0.001589 0.926844 0.006823 -2.881819 -5.933144 -4.393340 7.872624 0.238964 4.416459 -6.472936 0.947782 4.727370 5.919461 12.687961 1.187266 0.000000 0.000000 0.000000 -1.180196 -0.282875 3.758093 7.408976 -0.818636 6.648375 -7.531490 -18.623538 5.284726 0.000000 0.000000 0.000000 -2.385372 -0.198616 13.137265 4.821836 -0.981480 -20.418450 3.081236 1.375255 23.179849 -4.433720 3.835001 -27.231488 0.000000 0.000000 0.000000 -32.196219 -3.557122 1.136491 -43.178067 -7.483139 -4.627255 -19.263363 -27.396198 6.121557 0.000000 0.000000 0.000000 19.599381 10.650107 3.944870 52.273223 3.941012 -5.268788 12.534835 29.107733 4.141661 0.000000 0.000000 0.000000 
-0.001844 0.926556 0.008452 -2.903799 -5.701626 -4.343703 7.848216 0.229057 4.312344 -6.334911 0.925742 4.951110 5.868394 12.553920 0.987193 0.000000 0.000000 0.000000 -1.207295 -0.295417 3.910837 7.550359 -0.842980 6.504299 -7.616351 -18.792616 5.254686 0.000000 0.000000 0.000000 -2.422033 -0.197024 13.054007 4.765792 -0.955691 -20.469559 2.993348 1.494698 23.235162 -4.327041 3.814617 -27.233581 0.000000 0.000000 0.000000 -32.341373 -3.654481 1.082982 -42.880670 -7.337089 -4.615646 -19.219466 -27.350668 6.079036 0.000000 0.000000 0.000000 19.662991 10.628019 4.009679 52.242233 3.921800 -5.289902 12.080755 29.464254 4.103235 0.000000 0.000000 0.000000 
-0.002061 0.926567 0.009998 -2.853828 -5.624858 -4.306491 7.732010 0.223026 4.128030 -6.203315 0.913155 5.358501 5.868273 12.545509 0.946917 0.000000 0.000000 0.000000 -1.218014 -0.309276 4.086121 7.489166 -0.832240 6.305029 -7.640889 -18.838327 5.239841 0.000000 0.000000 0.000000 -2.529962 -0.185179 13.006861 4.763418 -0.954586 -20.446230 2.949664 1.610885 23.150315 -4.307728 3.827220 -27.248595 0.000000 0.000000 0.000000 -32.559925 -3.814451 1.113158 -42.679986 -7.297192 -4.581220 -19.093039 -27.479445 6.064278 0.000000 0.000000 0.000000 19.701735 10.830522 4.161300 52.058399 4.076816 -5.202099 12.080174 29.523122 4.117399 0.000000 0.000000 0.000000 
-0.002200 0.926410 0.011692 -2.756578 -5.513226 -4.228631 7.613666 0.213326 3.879698 -6.166707 0.917092 5.799010 5.857333 12.508527 0.865315 0.000000 0.000000 0.000000 -1.210853 -0.313157 4.122013 7.308604 -0.808245 6.290477 -7.711198 -18.970641 5.144898 0.000000 0.000000 0.000000 -2.598762 -0.177049 12.850605 4.742316 -0.938098 -20.538570 2.876205 1.609506 23.147379 -3.938101 3.626209 -27.044056 0.000000 0.000000 0.000000 -32.750985 -3.755206 1.038580 -42.642292 -7.173758 -4.609010 -19.179882 -27.468702 6.082566 0.000000 0.000000 0.000000 19.574728 11.103748 4.323140 52.055703 4.251613 -5.125429 11.915662 29.728544 4.110273 0.000000 0.000000 0.000000 
-0.002184 0.926374 0.013482 -2.730072 -5.311243 -4.268890 7.499451 0.213537 3.949936 -5.995821 0.884845 5.901102 5.797355 12.370289 0.775195 0.000000 0.000000 0.000000 -1.127482 -0.349683 4.488580 7.116970 -0.780472 5.947678 -7.781219 -19.113274 5.157637 0.000000 0.000000 0.000000 -2.692668 -0.169301 12.735370 4.821397 -0.949698 -20.622690 2.739858 1.539318 23.187091 -3.723807 3.511505 -26.804770 0.000000 0.000000 0.000000 -32.994111 -3.714699 0.978120 -42.542311 -6.974582 -4.662769 -19.209751 -27.378577 6.065439 0.000000 0.000000 0.000000 19.647096 11.271701 4.434404 52.042095 4.487533 -5.032833 11.787132 29.785585 4.091839 0.000000 0.000000 0.000000 
-0.002002 0.925976 0.015071 -2.612727 -5.169227 -4.256864 7.403097 0.209921 3.885368 -6.064040 0.900322 6.122406 5.763375 12.275843 0.614498 0.000000 0.000000 0.000000 -1.107238 -0.361802 4.609931 6.845159 -0.744067 5.902907 -7.876203 -19.289994 4.979571 0.000000 0.000000 0.000000 -2.796060 -0.158411 12.637750 4.779341 -0.938360 -20.546695 2.620167 1.427912 23.047400 -3.205037 3.207830 -26.629166 0.000000 0.000000 0.000000 -33.125321 -3.717281 0.983337 -42.538552 -6.580793 -4.783556 -19.259846 -27.715623 6.160894 0.000000 0.000000 0.000000 19.634876 11.461818 4.523915 52.070224 4.597967 -4.970392 11.980275 30.089338 4.184835 0.000000 0.000000 0.000000 
-0.001606 0.925860 0.016216 -2.660743 -5.225319 -4.214680 7.289869 0.208894 3.780194 -5.845595 0.868886 6.390264 5.829605 12.398474 0.505711 0.000000 0.000000 0.000000 -1.105945 -0.364732 4.650731 6.860156 -0.744595 5.882566 -7.849114 -19.232610 4.961861 0.000000 0.000000 0.000000 -2.812848 -0.154972 12.501382 4.881292 -0.950465 -20.766721 2.643123 1.533756 23.232441 -3.215682 3.227383 -26.755621 0.000000 0.000000 0.000000 -33.173615 -3.600124 0.871846 -42.844773 -6.367425 -4.882963 -19.585872 -27.559870 6.211854 0.000000 0.000000 0.000000 19.535911 11.542611 4.591042 52.257224 4.889183 -4.884401 11.771240 30.227937 4.163124 0.000000 0.000000 0.000000 
-0.001085 0.925786 0.016928 -2.703875 -5.269568 -4.114041 7.144838 0.202583 3.556215 -5.596222 0.831481 6.696155 5.899419 12.530391 0.415042 0.000000 0.000000 0.000000 -1.038953 -0.355741 4.496104 6.750557 -0.729514 6.042738 -7.851108 -19.235002 4.949998 0.000000 0.000000 0.000000 -2.845739 -0.150115 12.411583 5.002334 -0.980077 -20.841784 2.740942 1.557972 23.247695 -2.936689 3.064862 -26.545324 0.000000 0.000000 0.000000 -33.366048 -3.473840 0.771138 -43.069210 -5.760381 -5.099098 -19.683660 -27.734590 6.282579 0.000000 0.000000 0.000000 19.528804 11.701998 4.676187 52.216397 4.918153 -4.865857 11.494319 30.296865 4.101951 0.000000 0.000000 0.000000 
